{
  "accessors": [
    {
      "bufferView": 2,
      "componentType": 5126,
      "count": 256,
      "max": [
        421.7677001953125,
        453.93060302734375,
        87.976303100585938
      ],
      "min": [
        394.26791381835938,
        429.294189453125,
        51.869499206542969
      ],
      "type": "VEC3"
    },
    {
      "bufferView": 2,
      "byteOffset": 3072,
      "componentType": 5126,
      "count": 256,
      "max": [
        0.98435747623443604,
        0.93925958871841431,
        1
      ],
      "min": [
        -0.98435747623443604,
        -0.99954694509506226,
        -0.59541410207748413
      ],
      "type": "VEC3"
    },
    {
      "bufferView": 1,
      "componentType": 5126,
      "count": 256,
      "max": [
        0,
        0
      ],
      "min": [
        0,
        0
      ],
      "type": "VEC2"
    },
    {
      "bufferView": 0,
      "componentType": 5125,
      "count": 1188,
      "max": [
        255
      ],
      "min": [
        0
      ],
      "type": "SCALAR"
    },
    {
      "bufferView": 2,
      "byteOffset": 6144,
      "componentType": 5126,
      "count": 2736,
      "max": [
        452.019287109375,
        455.78759765625,
        88.151199340820312
      ],
      "min": [
        368.30938720703125,
        336.2998046875,
        1.0680999755859375
      ],
      "type": "VEC3"
    },
    {
      "bufferView": 2,
      "byteOffset": 38976,
      "componentType": 5126,
      "count": 2736,
      "max": [
        1,
        1,
        1
      ],
      "min": [
        -1,
        -1,
        -1
      ],
      "type": "VEC3"
    },
    {
      "bufferView": 3,
      "componentType": 5126,
      "count": 2736,
      "max": [
        1,
        1,
        1,
        1
      ],
      "min": [
        -1,
        -1,
        -1,
        -1
      ],
      "type": "VEC4"
    },
    {
      "bufferView": 1,
      "byteOffset": 2048,
      "componentType": 5126,
      "count": 2736,
      "max": [
        0.99169999361038208,
        0.9966999888420105
      ],
      "min": [
        0.0020000000949949026,
        0.11209999769926071
      ],
      "type": "VEC2"
    },
    {
      "bufferView": 0,
      "byteOffset": 4752,
      "componentType": 5125,
      "count": 8100,
      "max": [
        2735
      ],
      "min": [
        0
      ],
      "type": "SCALAR"
    },
    {
      "bufferView": 2,
      "byteOffset": 71808,
      "componentType": 5126,
      "count": 3812,
      "max": [
        465.57809448242188,
        463.1337890625,
        185.03379821777344
      ],
      "min": [
        15.691300392150879,
        17.092100143432617,
        -0.16580000519752502
      ],
      "type": "VEC3"
    },
    {
      "bufferView": 2,
      "byteOffset": 117552,
      "componentType": 5126,
      "count": 3812,
      "max": [
        1,
        1,
        1
      ],
      "min": [
        -1,
        -1,
        -1
      ],
      "type": "VEC3"
    },
    {
      "bufferView": 3,
      "byteOffset": 43776,
      "componentType": 5126,
      "count": 3812,
      "max": [
        1,
        1,
        1,
        1
      ],
      "min": [
        -1,
        -1,
        -1,
        -1
      ],
      "type": "VEC4"
    },
    {
      "bufferView": 1,
      "byteOffset": 23936,
      "componentType": 5126,
      "count": 3812,
      "max": [
        0.99220001697540283,
        3.4179000854492188
      ],
      "min": [
        -0.78670001029968262,
        0.00050000002374872565
      ],
      "type": "VEC2"
    },
    {
      "bufferView": 0,
      "byteOffset": 37152,
      "componentType": 5125,
      "count": 10380,
      "max": [
        3811
      ],
      "min": [
        0
      ],
      "type": "SCALAR"
    },
    {
      "bufferView": 2,
      "byteOffset": 163296,
      "componentType": 5126,
      "count": 656,
      "max": [
        467.30758666992188,
        472.900390625,
        196.9237060546875
      ],
      "min": [
        14.033100128173828,
        12.953399658203125,
        0.015799999237060547
      ],
      "type": "VEC3"
    },
    {
      "bufferView": 2,
      "byteOffset": 171168,
      "componentType": 5126,
      "count": 656,
      "max": [
        1,
        1,
        1
      ],
      "min": [
        -1,
        -1,
        -1
      ],
      "type": "VEC3"
    },
    {
      "bufferView": 3,
      "byteOffset": 104768,
      "componentType": 5126,
      "count": 656,
      "max": [
        1,
        1,
        0.015438143163919449,
        1
      ],
      "min": [
        -1,
        -1,
        -0.015437353402376175,
        1
      ],
      "type": "VEC4"
    },
    {
      "bufferView": 1,
      "byteOffset": 54432,
      "componentType": 5126,
      "count": 656,
      "max": [
        0.9406999945640564,
        1.0024000406265259
      ],
      "min": [
        0.00050000002374872565,
        0.00050000002374872565
      ],
      "type": "VEC2"
    },
    {
      "bufferView": 0,
      "byteOffset": 78672,
      "componentType": 5125,
      "count": 1152,
      "max": [
        655
      ],
      "min": [
        0
      ],
      "type": "SCALAR"
    },
    {
      "bufferView": 2,
      "byteOffset": 179040,
      "componentType": 5126,
      "count": 384,
      "max": [
        476.89019775390625,
        482.29708862304688,
        291.05389404296875
      ],
      "min": [
        4.4492998123168945,
        2.5083999633789062,
        0
      ],
      "type": "VEC3"
    },
    {
      "bufferView": 2,
      "byteOffset": 183648,
      "componentType": 5126,
      "count": 384,
      "max": [
        1,
        1,
        1
      ],
      "min": [
        -1,
        -1,
        -1
      ],
      "type": "VEC3"
    },
    {
      "bufferView": 3,
      "byteOffset": 115264,
      "componentType": 5126,
      "count": 384,
      "max": [
        1,
        1,
        0.90895694494247437,
        1
      ],
      "min": [
        -1,
        -1,
        -0.40880900621414185,
        -1
      ],
      "type": "VEC4"
    },
    {
      "bufferView": 1,
      "byteOffset": 59680,
      "componentType": 5126,
      "count": 384,
      "max": [
        0.99949997663497925,
        0.98729997873306274
      ],
      "min": [
        0.00050000002374872565,
        0.0012000000569969416
      ],
      "type": "VEC2"
    },
    {
      "bufferView": 0,
      "byteOffset": 83280,
      "componentType": 5125,
      "count": 576,
      "max": [
        383
      ],
      "min": [
        0
      ],
      "type": "SCALAR"
    },
    {
      "bufferView": 2,
      "byteOffset": 188256,
      "componentType": 5126,
      "count": 1714,
      "max": [
        462.66848754882812,
        463.95260620117188,
        293.44989013671875
      ],
      "min": [
        18.295999526977539,
        22.795999526977539,
        182.34989929199219
      ],
      "type": "VEC3"
    },
    {
      "bufferView": 2,
      "byteOffset": 208824,
      "componentType": 5126,
      "count": 1714,
      "max": [
        1,
        1,
        1
      ],
      "min": [
        -1,
        -1,
        -1
      ],
      "type": "VEC3"
    },
    {
      "bufferView": 3,
      "byteOffset": 121408,
      "componentType": 5126,
      "count": 1714,
      "max": [
        1,
        1,
        0.99999850988388062,
        1
      ],
      "min": [
        -1,
        -1,
        -1,
        -1
      ],
      "type": "VEC4"
    },
    {
      "bufferView": 1,
      "byteOffset": 62752,
      "componentType": 5126,
      "count": 1714,
      "max": [
        0.99949997663497925,
        0.98320001363754272
      ],
      "min": [
        0.00050000002374872565,
        0.00050000002374872565
      ],
      "type": "VEC2"
    },
    {
      "bufferView": 0,
      "byteOffset": 85584,
      "componentType": 5125,
      "count": 3024,
      "max": [
        1713
      ],
      "min": [
        0
      ],
      "type": "SCALAR"
    }
  ],
  "asset": {
    "extras": {
      "author": "Hazime Kondo Neto (https://sketchfab.com/hazime.kondo)",
      "license": "CC-BY-4.0 (http://creativecommons.org/licenses/by/4.0/)",
      "source": "https://sketchfab.com/models/49569a952aa94442aa3a6b705d57a37a",
      "title": "Wharehouse"
    },
    "generator": "Sketchfab-3.20.7",
    "version": "2.0"
  },
  "bufferViews": [
    {
      "buffer": 0,
      "byteLength": 97680,
      "byteOffset": 0,
      "name": "floatBufferViews",
      "target": 34963
    },
    {
      "buffer": 0,
      "byteLength": 76464,
      "byteOffset": 97680,
      "byteStride": 8,
      "name": "floatBufferViews",
      "target": 34962
    },
    {
      "buffer": 0,
      "byteLength": 229392,
      "byteOffset": 174144,
      "byteStride": 12,
      "name": "floatBufferViews",
      "target": 34962
    },
    {
      "buffer": 0,
      "byteLength": 148832,
      "byteOffset": 403536,
      "byteStride": 16,
      "name": "floatBufferViews",
      "target": 34962
    }
  ],
  "buffers": [
    {
      "byteLength": 552368,
      "uri": "scene.bin"
    }
  ],
  "images": [
    {
      "uri": "textures/Textura3_baseColor.jpg"
    },
    {
      "uri": "textures/Textura0_baseColor.jpg"
    },
    {
      "uri": "textures/Textura2_baseColor.jpg"
    },
    {
      "uri": "textures/Textura1_baseColor.jpg"
    },
    {
      "uri": "textures/Textura4_baseColor.jpg"
    }
  ],
  "materials": [
    {
      "doubleSided": true,
      "emissiveFactor": [
        0,
        0,
        0
      ],
      "name": "Textura0",
      "pbrMetallicRoughness": {
        "baseColorFactor": [
          1,
          1,
          1,
          1
        ],
        "baseColorTexture": {
          "index": 1,
          "texCoord": 0
        },
        "metallicFactor": 0,
        "roughnessFactor": 1
      }
    },
    {
      "doubleSided": true,
      "emissiveFactor": [
        0,
        0,
        0
      ],
      "name": "Textura1",
      "pbrMetallicRoughness": {
        "baseColorFactor": [
          1,
          1,
          1,
          1
        ],
        "baseColorTexture": {
          "index": 3,
          "texCoord": 0
        },
        "metallicFactor": 0,
        "roughnessFactor": 1
      }
    },
    {
      "doubleSided": true,
      "emissiveFactor": [
        0,
        0,
        0
      ],
      "name": "Textura2",
      "pbrMetallicRoughness": {
        "baseColorFactor": [
          1,
          1,
          1,
          1
        ],
        "baseColorTexture": {
          "index": 2,
          "texCoord": 0
        },
        "metallicFactor": 0,
        "roughnessFactor": 1
      }
    },
    {
      "doubleSided": true,
      "emissiveFactor": [
        0,
        0,
        0
      ],
      "name": "Textura3",
      "pbrMetallicRoughness": {
        "baseColorFactor": [
          1,
          1,
          1,
          1
        ],
        "baseColorTexture": {
          "index": 0,
          "texCoord": 0
        },
        "metallicFactor": 0,
        "roughnessFactor": 1
      }
    },
    {
      "doubleSided": true,
      "emissiveFactor": [
        0,
        0,
        0
      ],
      "name": "Textura4",
      "pbrMetallicRoughness": {
        "baseColorFactor": [
          1,
          1,
          1,
          1
        ],
        "baseColorTexture": {
          "index": 4,
          "texCoord": 0
        },
        "metallicFactor": 0,
        "roughnessFactor": 1
      }
    }
  ],
  "meshes": [
    {
      "primitives": [
        {
          "attributes": {
            "NORMAL": 1,
            "POSITION": 0,
            "TEXCOORD_0": 2
          },
          "indices": 3,
          "material": 0,
          "mode": 4
        }
      ]
    },
    {
      "primitives": [
        {
          "attributes": {
            "NORMAL": 5,
            "POSITION": 4,
            "TANGENT": 6,
            "TEXCOORD_0": 7
          },
          "indices": 8,
          "material": 0,
          "mode": 4
        }
      ]
    },
    {
      "primitives": [
        {
          "attributes": {
            "NORMAL": 10,
            "POSITION": 9,
            "TANGENT": 11,
            "TEXCOORD_0": 12
          },
          "indices": 13,
          "material": 1,
          "mode": 4
        }
      ]
    },
    {
      "primitives": [
        {
          "attributes": {
            "NORMAL": 15,
            "POSITION": 14,
            "TANGENT": 16,
            "TEXCOORD_0": 17
          },
          "indices": 18,
          "material": 2,
          "mode": 4
        }
      ]
    },
    {
      "primitives": [
        {
          "attributes": {
            "NORMAL": 20,
            "POSITION": 19,
            "TANGENT": 21,
            "TEXCOORD_0": 22
          },
          "indices": 23,
          "material": 3,
          "mode": 4
        }
      ]
    },
    {
      "primitives": [
        {
          "attributes": {
            "NORMAL": 25,
            "POSITION": 24,
            "TANGENT": 26,
            "TEXCOORD_0": 27
          },
          "indices": 28,
          "material": 4,
          "mode": 4
        }
      ]
    }
  ],
  "nodes": [
    {
      "children": [
        1
      ],
      "name": "RootNode (gltf orientation matrix)",
      "rotation": [
        -0.70710678118654746,
        -0,
        -0,
        0.70710678118654757
      ]
    },
    {
      "children": [
        2
      ],
      "name": "RootNode (model correction matrix)"
    },
    {
      "children": [
        3,
        4,
        5,
        6,
        7,
        8
      ],
      "name": "wharehouse.obj.cleaner.materialmerger.gles"
    },
    {
      "mesh": 0,
      "name": ""
    },
    {
      "mesh": 1,
      "name": ""
    },
    {
      "mesh": 2,
      "name": ""
    },
    {
      "mesh": 3,
      "name": ""
    },
    {
      "mesh": 4,
      "name": ""
    },
    {
      "mesh": 5,
      "name": ""
    }
  ],
  "samplers": [
    {
      "magFilter": 9729,
      "minFilter": 9987,
      "wrapS": 10497,
      "wrapT": 10497
    }
  ],
  "scene": 0,
  "scenes": [
    {
      "name": "OSG_Scene",
      "nodes": [
        0
      ]
    }
  ],
  "textures": [
    {
      "sampler": 0,
      "source": 0
    },
    {
      "sampler": 0,
      "source": 1
    },
    {
      "sampler": 0,
      "source": 2
    },
    {
      "sampler": 0,
      "source": 3
    },
    {
      "sampler": 0,
      "source": 4
    }
  ]
}

